<?xml version="1.0" encoding="UTF-8" standalone="no"?>
<svg
   xmlns:dc="http://purl.org/dc/elements/1.1/"
   xmlns:cc="http://creativecommons.org/ns#"
   xmlns:rdf="http://www.w3.org/1999/02/22-rdf-syntax-ns#"
   xmlns:svg="http://www.w3.org/2000/svg"
   xmlns="http://www.w3.org/2000/svg"
   xmlns:sodipodi="http://sodipodi.sourceforge.net/DTD/sodipodi-0.dtd"
   xmlns:inkscape="http://www.inkscape.org/namespaces/inkscape"
   width="214.37891pt"
   height="47.898438pt"
   viewBox="0 0 214.37891 47.898438"
   version="1.1"
   id="svg4226"
   sodipodi:docname="logo.svg"
   inkscape:version="0.92.3 (3ce5693, 2018-03-11)">
  <metadata
     id="metadata4232">
    <rdf:RDF>
      <cc:Work
         rdf:about="">
        <dc:format>image/svg+xml</dc:format>
        <dc:type
           rdf:resource="http://purl.org/dc/dcmitype/StillImage" />
        <dc:title></dc:title>
      </cc:Work>
    </rdf:RDF>
  </metadata>
  <defs
     id="defs4230" />
  <sodipodi:namedview
     pagecolor="#ffffff"
     bordercolor="#666666"
     borderopacity="1"
     objecttolerance="10"
     gridtolerance="10"
     guidetolerance="10"
     inkscape:pageopacity="0"
     inkscape:pageshadow="2"
     inkscape:window-width="2560"
     inkscape:window-height="1003"
     id="namedview4228"
     showgrid="false"
     borderlayer="false"
     fit-margin-top="0"
     fit-margin-left="0"
     fit-margin-right="0"
     fit-margin-bottom="0"
     inkscape:zoom="0.63211061"
     inkscape:cx="543.33382"
     inkscape:cy="345.50509"
     inkscape:window-x="0"
     inkscape:window-y="24"
     inkscape:window-maximized="1"
     inkscape:current-layer="svg4226" />
  <g
     id="surface1"
     transform="translate(0,-744.10156)">
    <path
       style="fill:#ffffff;fill-opacity:0;fill-rule:nonzero;stroke:none"
       d="m 6.789062,779.85937 h 13.578126 l 6.785156,-11.75781 -6.789063,-11.76172 H 6.785156 L 0,768.10156 6.789062,779.85937"
       id="path4171"
       inkscape:connector-curvature="0" />
    <path
       style="fill:#23a6de;fill-opacity:1;fill-rule:nonzero;stroke:none"
       d="M 20.363281,756.33984 H 6.785156 L 0,768.10156 6.789062,779.85937 h 13.578126 l 6.785156,-11.75781 z m -1.730469,3 5.058594,8.76172 -5.054687,8.75781 H 8.523438 l -5.058594,-8.75781 5.054687,-8.76172 h 10.113281"
       id="path4173"
       inkscape:connector-curvature="0" />
    <path
       style="fill:#23a6de;fill-opacity:1;fill-rule:nonzero;stroke:none"
       d="m 12.945312,768.33984 -5.558593,-9.73047 0.871093,-0.48828 5.554688,9.73047 -0.867188,0.48828"
       id="path4175"
       inkscape:connector-curvature="0" />
    <path
       style="fill:#23a6de;fill-opacity:1;fill-rule:nonzero;stroke:none"
       d="m 25.128906,768.66016 -11.753906,-0.0586 0.0039,-1 11.753906,0.0586 -0.0039,1"
       id="path4177"
       inkscape:connector-curvature="0" />
    <path
       style="fill:#23a6de;fill-opacity:1;fill-rule:nonzero;stroke:none"
       d="m 7.835938,778.58984 -0.863282,-0.5 5.972656,-10.25 0.863282,0.51172 -5.972656,10.23828"
       id="path4179"
       inkscape:connector-curvature="0" />
    <path
       style="fill:#ffffff;fill-opacity:0;fill-rule:nonzero;stroke:none"
       d="M 27.960938,792 H 41.539062 L 48.324219,780.23828 41.53125,768.48047 H 27.957031 L 21.167969,780.23828 27.960938,792"
       id="path4181"
       inkscape:connector-curvature="0" />
    <path
       style="fill:#23a6de;fill-opacity:1;fill-rule:nonzero;stroke:none"
       d="M 41.53125,768.48047 H 27.957031 L 21.167969,780.23828 27.960938,792 h 13.578124 l 6.785157,-11.76172 z m -1.730469,3 5.058594,8.75781 L 39.804688,789 H 29.691406 l -5.058594,-8.76172 5.054688,-8.75781 h 10.113281"
       id="path4183"
       inkscape:connector-curvature="0" />
    <path
       style="fill:#23a6de;fill-opacity:1;fill-rule:nonzero;stroke:none"
       d="m 34.515625,780.48828 -5.75,-10.06641 0.871094,-0.5 5.746093,10.06641 -0.867187,0.5"
       id="path4185"
       inkscape:connector-curvature="0" />
    <path
       style="fill:#23a6de;fill-opacity:1;fill-rule:nonzero;stroke:none"
       d="m 46.289062,780.80078 -11.34375,-0.0625 0.0078,-1 11.34375,0.0625 -0.0078,1"
       id="path4187"
       inkscape:connector-curvature="0" />
    <path
       style="fill:#23a6de;fill-opacity:1;fill-rule:nonzero;stroke:none"
       d="m 29.492188,790.58984 -0.863282,-0.5 5.886719,-10.10156 0.867187,0.5 -5.890624,10.10156"
       id="path4189"
       inkscape:connector-curvature="0" />
    <path
       style="fill:#ffffff;fill-opacity:0;fill-rule:nonzero;stroke:none"
       d="m 27.882812,767.62109 13.578126,-0.0117 6.785156,-11.75 -6.789063,-11.75781 H 27.878906 l -6.785156,11.75781 6.789062,11.76172"
       id="path4191"
       inkscape:connector-curvature="0" />
    <path
       style="fill:#23a6de;fill-opacity:1;fill-rule:nonzero;stroke:none"
       d="M 41.457031,744.10156 H 27.878906 l -6.785156,11.75781 6.789062,11.76172 13.578126,-0.0117 6.785156,-11.75 z m -1.734375,3 5.058594,8.75781 -5.054688,8.75 -10.113281,0.0117 -5.058593,-8.76172 5.054687,-8.75781 h 10.113281"
       id="path4193"
       inkscape:connector-curvature="0" />
    <path
       style="fill:#23a6de;fill-opacity:1;fill-rule:nonzero;stroke:none"
       d="m 34.15625,756.10156 -5.832031,-10.21094 0.871093,-0.5 5.828126,10.21094 -0.867188,0.5"
       id="path4195"
       inkscape:connector-curvature="0" />
    <path
       style="fill:#23a6de;fill-opacity:1;fill-rule:nonzero;stroke:none"
       d="m 46.246094,756.41016 -11.660156,-0.0586 0.0078,-1 11.65625,0.0586 -0.0039,1"
       id="path4197"
       inkscape:connector-curvature="0" />
    <path
       style="fill:#23a6de;fill-opacity:1;fill-rule:nonzero;stroke:none"
       d="m 28.753906,766.85937 -0.863281,-0.50781 6.265625,-10.75 0.867188,0.5 -6.269532,10.75781"
       id="path4199"
       inkscape:connector-curvature="0" />
    <path
       style="fill:#fff;fill-opacity:1;fill-rule:nonzero;stroke:none"
       d="m 53.511719,774.01172 h 4.609375 c 1.089844,0 1.882812,-0.19141 2.378906,-0.58203 0.496094,-0.39063 0.746094,-0.98828 0.746094,-1.82032 0,-0.87109 -0.246094,-1.48828 -0.734375,-1.87109 -0.488281,-0.37891 -1.292969,-0.56641 -2.414063,-0.56641 h -4.585937 z m 0,-8.01172 h 4.445312 c 0.957031,0 1.660157,-0.16016 2.105469,-0.48047 0.445312,-0.32812 0.667969,-0.83984 0.667969,-1.53125 0,-0.67969 -0.214844,-1.16797 -0.648438,-1.47656 -0.433593,-0.30078 -1.148437,-0.46094 -2.152343,-0.46094 h -4.417969 z m -3.726563,11.35156 v -18.51172 h 8.917969 c 1.933594,0 3.410156,0.39844 4.425781,1.19922 1.015625,0.80078 1.523438,1.96094 1.523438,3.48047 0,0.94141 -0.191406,1.73047 -0.566406,2.35156 -0.378907,0.62891 -0.941407,1.11719 -1.695313,1.46094 0.972656,0.38672 1.703125,0.9375 2.1875,1.66797 0.484375,0.71875 0.726563,1.62891 0.726563,2.71094 0,1.80078 -0.597657,3.1875 -1.796876,4.16797 -1.199218,0.98046 -2.902343,1.47265 -5.101562,1.47265 h -8.621094"
       id="path4201"
       inkscape:connector-curvature="0" />
    <path
       style="fill:#fff;fill-opacity:1;fill-rule:nonzero;stroke:none"
       d="m 68.121094,777.35156 h 3.738281 v -18.51172 h -3.738281 z m 0,0"
       id="path4203"
       inkscape:connector-curvature="0" />
    <path
       style="fill:#fff;fill-opacity:1;fill-rule:nonzero;stroke:none"
       d="m 78.308594,770.5 c 0,1.35937 0.285156,2.41016 0.855468,3.14062 0.566407,0.73829 1.378907,1.10938 2.433594,1.10938 1.035156,0 1.839844,-0.37109 2.410156,-1.10938 0.570313,-0.73046 0.855469,-1.78125 0.855469,-3.14062 0,-1.35156 -0.285156,-2.39063 -0.847656,-3.12109 -0.566406,-0.73829 -1.371094,-1.09766 -2.417969,-1.09766 -1.054687,0 -1.867187,0.35937 -2.433594,1.09766 -0.570312,0.73046 -0.855468,1.76953 -0.855468,3.12109 z m -3.789063,0 c 0,-2.26953 0.628907,-4.05078 1.886719,-5.35156 1.257812,-1.29688 2.992188,-1.94922 5.191406,-1.94922 2.191406,0 3.921875,0.65234 5.183594,1.94922 1.265625,1.30078 1.894531,3.08203 1.894531,5.35156 0,2.28125 -0.628906,4.07031 -1.894531,5.37109 -1.261719,1.30078 -2.992188,1.94922 -5.183594,1.94922 -2.199218,0 -3.933594,-0.64844 -5.191406,-1.94922 -1.257812,-1.30078 -1.886719,-3.08984 -1.886719,-5.37109"
       id="path4205"
       inkscape:connector-curvature="0" />
    <path
       style="fill:#fff;fill-opacity:1;fill-rule:nonzero;stroke:none"
       d="m 99.664062,772.19922 h 3.687498 c -0.15625,1.73047 -0.80078,3.10156 -1.9414,4.10937 -1.13672,1 -2.601566,1.51172 -4.394535,1.51172 -2.027344,0 -3.621094,-0.64844 -4.773437,-1.94922 -1.152344,-1.28906 -1.726563,-3.08203 -1.726563,-5.37109 0,-2.28125 0.589844,-4.07031 1.765625,-5.35938 1.179688,-1.30078 2.800781,-1.9414 4.863281,-1.9414 1.808594,0 3.257809,0.47265 4.351559,1.41015 1.08985,0.92969 1.69922,2.24219 1.82813,3.92188 h -3.710939 c -0.101562,-0.73047 -0.363281,-1.29297 -0.785156,-1.67188 -0.417969,-0.39062 -0.972656,-0.57812 -1.65625,-0.57812 -0.925781,0 -1.617187,0.34766 -2.074219,1.07031 -0.460937,0.70703 -0.6875,1.77735 -0.6875,3.19922 0,1.32031 0.238282,2.32813 0.710938,3.03906 0.476562,0.69922 1.160156,1.0586 2.050781,1.0586 0.691406,0 1.25,-0.20703 1.671875,-0.61719 0.417969,-0.41016 0.691406,-1.01953 0.820312,-1.83203"
       id="path4207"
       inkscape:connector-curvature="0" />
    <path
       style="fill:#fff;fill-opacity:1;fill-rule:nonzero;stroke:none"
       d="m 105.79297,777.35156 v -18.51172 h 3.63672 v 9.71094 l 4.44531,-4.85937 h 4.49609 l -4.86718,5.05859 5.16406,8.60156 h -4.48438 l -3.33984,-5.82031 -1.41406,1.5 v 4.32031 h -3.63672"
       id="path4209"
       inkscape:connector-curvature="0" />
    <path
       style="fill:#fff;fill-opacity:1;fill-rule:nonzero;stroke:none"
       d="m 119.74609,771.62891 h 3.84375 c 0.14454,1.01953 0.56641,1.76953 1.26954,2.26171 0.70312,0.48829 1.71875,0.73047 3.04687,0.73047 1.12891,0 1.98437,-0.1914 2.55859,-0.58984 0.57032,-0.39063 0.85938,-0.97266 0.85938,-1.74219 0,-1.1289 -1.64844,-2.05859 -4.94531,-2.78906 l -0.11719,-0.0312 c -0.0859,-0.0195 -0.21875,-0.0469 -0.39844,-0.0898 -1.76562,-0.37891 -3.02344,-0.79688 -3.77734,-1.26954 -0.66797,-0.41796 -1.17969,-0.98046 -1.53125,-1.6875 -0.35156,-0.71093 -0.52735,-1.54296 -0.52735,-2.51171 0,-1.80079 0.62891,-3.17969 1.87891,-4.14063 1.25,-0.96094 3.05859,-1.4375 5.42188,-1.4375 2.21093,0 3.93749,0.50781 5.18359,1.53906 1.24609,1.01953 1.90234,2.46094 1.97265,4.32032 h -3.73828 c -0.0703,-0.90235 -0.42187,-1.58204 -1.05468,-2.05079 -0.63282,-0.46875 -1.53907,-0.69921 -2.71094,-0.69921 -1.01953,0 -1.80469,0.1875 -2.35938,0.57812 -0.55078,0.39063 -0.82812,0.94922 -0.82812,1.67188 0,0.98046 1.07422,1.70703 3.22656,2.19921 0.58203,0.12891 1.03516,0.23829 1.36328,0.3086 1.37891,0.35156 2.35547,0.60937 2.9336,0.8125 0.57812,0.1875 1.08203,0.39844 1.51171,0.63672 0.76954,0.42187 1.34766,0.97265 1.73438,1.66015 0.38281,0.69141 0.57812,1.52344 0.57812,2.49219 0,1.91797 -0.66406,3.41797 -1.99218,4.48047 -1.32813,1.05859 -3.19922,1.58984 -5.61719,1.58984 -2.37891,0 -4.24609,-0.53906 -5.60156,-1.62109 -1.35156,-1.08984 -2.07813,-2.62109 -2.1836,-4.62109"
       id="path4211"
       inkscape:connector-curvature="0" />
    <path
       style="fill:#fff;fill-opacity:1;fill-rule:nonzero;stroke:none"
       d="m 140.93359,770.5 c 0,1.35937 0.28516,2.41016 0.85547,3.14062 0.57031,0.73829 1.38281,1.10938 2.4336,1.10938 1.03906,0 1.83984,-0.37109 2.41015,-1.10938 0.57031,-0.73046 0.85547,-1.78125 0.85547,-3.14062 0,-1.35156 -0.28516,-2.39063 -0.84766,-3.12109 -0.5664,-0.73829 -1.37109,-1.09766 -2.41796,-1.09766 -1.05079,0 -1.86329,0.35937 -2.4336,1.09766 -0.57031,0.73046 -0.85547,1.76953 -0.85547,3.12109 z m -3.78906,0 c 0,-2.26953 0.62891,-4.05078 1.88672,-5.35156 1.26172,-1.29688 2.99219,-1.94922 5.19141,-1.94922 2.1914,0 3.92187,0.65234 5.18359,1.94922 1.26562,1.30078 1.89844,3.08203 1.89844,5.35156 0,2.28125 -0.63282,4.07031 -1.89844,5.37109 -1.26172,1.30078 -2.99219,1.94922 -5.18359,1.94922 -2.19922,0 -3.92969,-0.64844 -5.19141,-1.94922 -1.25781,-1.30078 -1.88672,-3.08984 -1.88672,-5.37109"
       id="path4213"
       inkscape:connector-curvature="0" />
    <path
       style="fill:#fff;fill-opacity:1;fill-rule:nonzero;stroke:none"
       d="M 154.50391,777.35156 V 766.25 h -1.99219 v -2.55859 h 1.99219 v -1.26954 c 0,-1.28125 0.33593,-2.21093 1.00781,-2.8125 0.67187,-0.59765 1.73047,-0.89843 3.17969,-0.89843 0.26562,0 0.54687,0.008 0.83984,0.0195 0.29687,0.008 0.61328,0.0312 0.94531,0.0703 v 2.89844 H 159.5 c -0.55469,0 -0.92188,0.0703 -1.09766,0.21094 -0.17578,0.14843 -0.26172,0.42187 -0.26172,0.82031 v 0.96094 h 2.33594 V 766.25 h -2.3125 v 11.10156 h -3.66015"
       id="path4215"
       inkscape:connector-curvature="0" />
    <path
       style="fill:#fff;fill-opacity:1;fill-rule:nonzero;stroke:none"
       d="m 168.58594,777.44922 c -0.34375,0.0117 -0.75391,0.0312 -1.22657,0.0508 -0.47656,0.0195 -0.77734,0.0312 -0.90625,0.0312 -1.43359,0 -2.41015,-0.26172 -2.9375,-0.79297 -0.52734,-0.51953 -0.78906,-1.54687 -0.78906,-3.09766 V 766.25 H 160.875 v -2.55859 h 1.85156 v -3.74219 h 3.69922 v 3.74219 h 2.16016 V 766.25 h -2.16016 v 7.57031 c 0,0.35938 0.082,0.60156 0.24609,0.71094 0.16016,0.10937 0.4961,0.16797 1,0.16797 h 0.91407 v 2.75"
       id="path4217"
       inkscape:connector-curvature="0" />
    <path
       style="fill:#fff;fill-opacity:1;fill-rule:nonzero;stroke:none"
       d="m 171.06641,777.35156 v -18.51172 h 3.89062 v 15.08985 h 9.23828 v 3.42187 h -13.1289"
       id="path4219"
       inkscape:connector-curvature="0" />
    <path
       style="fill:#fff;fill-opacity:1;fill-rule:nonzero;stroke:none"
       d="m 193.94922,770.62891 c -0.60938,0.26953 -1.3086,0.49218 -2.10156,0.66015 -0.79297,0.17188 -1.19922,0.26172 -1.22657,0.26953 -0.66015,0.17969 -1.12109,0.41016 -1.38281,0.69141 -0.25781,0.26953 -0.39062,0.66016 -0.39062,1.14062 0,0.5 0.16796,0.89844 0.5039,1.19922 0.33203,0.30078 0.78125,0.44922 1.34766,0.44922 1.01172,0 1.80469,-0.27734 2.38281,-0.83984 0.57813,-0.55078 0.86719,-1.32031 0.86719,-2.27735 z m 0.0664,5.01953 c -0.47265,0.72265 -1.08984,1.26172 -1.85156,1.63281 -0.76172,0.37891 -1.64844,0.55859 -2.66015,0.55859 -1.35547,0 -2.39844,-0.3789 -3.12891,-1.1289 -0.73047,-0.75 -1.09766,-1.83203 -1.09766,-3.22266 0,-1.28906 0.36719,-2.26953 1.09766,-2.94922 0.73047,-0.67969 1.94141,-1.14844 3.62891,-1.39844 0.38671,-0.0586 0.89062,-0.12109 1.51562,-0.19921 1.58594,-0.20313 2.37891,-0.65235 2.37891,-1.33985 0,-0.5625 -0.17578,-0.95312 -0.52735,-1.1914 -0.35156,-0.23829 -0.9375,-0.35938 -1.76172,-0.35938 -0.7539,0 -1.33203,0.14844 -1.73437,0.4375 -0.40234,0.29297 -0.60156,0.71094 -0.60156,1.26172 v 0.19922 h -3.4961 v -0.25 c 0,-1.39844 0.50391,-2.5 1.51563,-3.30078 1.01172,-0.79688 2.40625,-1.19922 4.1875,-1.19922 1.95312,0 3.45312,0.33203 4.49219,0.99219 1.04296,0.66015 1.5625,1.61718 1.5625,2.86718 v 7.77344 c 0,0.55859 0.0586,0.98828 0.17968,1.26953 0.1211,0.27735 0.32032,0.48828 0.60157,0.63672 v 0.61328 h -3.89063 c -0.12891,-0.23047 -0.23047,-0.49219 -0.29687,-0.78125 -0.0664,-0.28125 -0.10547,-0.58984 -0.11329,-0.92187"
       id="path4221"
       inkscape:connector-curvature="0" />
    <path
       style="fill:#fff;fill-opacity:1;fill-rule:nonzero;stroke:none"
       d="m 210.66406,770.42969 c 0,-1.25782 -0.26953,-2.25 -0.80859,-2.96875 -0.53906,-0.71094 -1.28125,-1.07032 -2.22266,-1.07032 -0.99219,0 -1.76172,0.34766 -2.30469,1.05079 -0.54687,0.69921 -0.8164,1.6875 -0.8164,2.98828 0,1.39062 0.25781,2.4414 0.77734,3.16015 0.51953,0.71875 1.27344,1.08203 2.26563,1.08203 1.01172,0 1.78515,-0.36328 2.3164,-1.08203 0.52735,-0.73047 0.79297,-1.78125 0.79297,-3.16015 z M 200.875,758.83984 h 3.63672 v 6.53907 c 0.46094,-0.70704 1.04297,-1.25 1.74219,-1.60938 0.69531,-0.37109 1.49218,-0.55078 2.38281,-0.55078 1.6875,0 3.0664,0.67969 4.13672,2.05078 1.07031,1.35938 1.60547,3.12891 1.60547,5.3125 0,2.15625 -0.53516,3.90625 -1.60547,5.23828 -1.07032,1.32813 -2.46485,2 -4.1875,2 -0.90235,0 -1.6836,-0.1914 -2.34766,-0.55859 -0.66406,-0.36328 -1.26562,-0.95313 -1.80469,-1.76172 v 1.85156 H 200.875 v -18.51172"
       id="path4223"
       inkscape:connector-curvature="0" />
  </g>
</svg>
